<?xml version="1.0" encoding="UTF-8" ?>
<svg version="1.1" width="24" height="24" xmlns="http://www.w3.org/2000/svg" shape-rendering="crispEdges">
<path d="M9 2h6v1h-6ZM8 3h1v1h-1ZM15 3h1v1h-1ZM6 4h2v2h-2ZM9 4h1v1h-1ZM16 4h2v2h-2ZM5 5h1v3h-1ZM10 5h1v2h-1ZM18 5h1v3h-1ZM4 6h1v4h-1ZM6 6h1v1h-1ZM8 6h2v1h-2ZM11 6h4v1h-4ZM17 6h1v1h-1ZM19 6h1v4h-1ZM7 7h1v2h-1ZM15 7h1v1h-1ZM3 8h1v10h-1ZM16 8h1v1h-1ZM20 8h1v10h-1ZM6 9h1v2h-1ZM8 9h3v2h-3ZM13 9h3v2h-3ZM17 9h1v2h-1ZM2 10h1v4h-1ZM5 10h1v6h-1ZM18 10h1v6h-1ZM21 10h1v4h-1ZM8 11h2v1h-2ZM14 11h2v1h-2ZM11 12h2v1h-2ZM10 13h1v2h-1ZM13 13h1v2h-1ZM6 14h1v2h-1ZM17 14h1v2h-1ZM4 15h1v1h-1ZM7 15h3v1h-3ZM14 15h3v1h-3ZM19 15h1v1h-1ZM7 16h1v4h-1ZM12 16h1v1h-1ZM16 16h1v4h-1ZM4 17h1v2h-1ZM11 17h1v1h-1ZM13 17h1v1h-1ZM19 17h1v2h-1ZM5 18h2v1h-2ZM8 18h2v1h-2ZM14 18h2v1h-2ZM17 18h2v1h-2ZM6 19h1v1h-1ZM10 19h4v1h-4ZM17 19h1v1h-1ZM8 20h1v3h-1ZM15 20h1v1h-1ZM10 21h1v2h-1ZM12 21h1v2h-1ZM14 21h1v2h-1ZM11 22h1v1h-1ZM9 23h1v1h-1ZM13 23h1v1h-1Z" fill="#000000" />
</svg>
