<?xml version="1.0" encoding="UTF-8" ?>
<svg version="1.1" width="24" height="24" xmlns="http://www.w3.org/2000/svg" shape-rendering="crispEdges">
<path d="M5 2h2v1h-2ZM9 2h6v1h-6ZM17 2h2v1h-2ZM4 3h1v8h-1ZM6 3h4v1h-4ZM11 3h2v2h-2ZM14 3h4v1h-4ZM19 3h1v8h-1ZM7 4h2v1h-2ZM15 4h2v1h-2ZM8 6h1v2h-1ZM15 6h1v2h-1ZM5 7h1v4h-1ZM18 7h1v4h-1ZM3 8h1v8h-1ZM9 8h1v1h-1ZM14 8h1v1h-1ZM20 8h1v8h-1ZM6 9h1v2h-1ZM10 9h1v1h-1ZM13 9h1v1h-1ZM2 10h1v4h-1ZM8 10h1v3h-1ZM15 10h1v1h-1ZM21 10h1v4h-1ZM9 11h1v2h-1ZM14 11h1v1h-1ZM4 12h1v2h-1ZM10 12h1v1h-1ZM13 12h1v1h-1ZM15 12h1v1h-1ZM19 12h1v2h-1ZM5 13h2v1h-2ZM17 13h2v1h-2ZM6 14h2v2h-2ZM16 14h1v5h-1ZM4 15h1v7h-1ZM10 15h1v4h-1ZM13 15h1v4h-1ZM15 15h1v3h-1ZM19 15h1v7h-1ZM7 16h1v3h-1ZM8 17h2v1h-2ZM11 17h2v1h-2ZM14 17h1v1h-1ZM8 18h1v1h-1ZM7 20h1v1h-1ZM10 20h1v3h-1ZM13 20h1v3h-1ZM16 20h1v1h-1ZM6 21h1v1h-1ZM8 21h1v1h-1ZM15 21h1v1h-1ZM17 21h1v1h-1ZM5 22h1v1h-1ZM9 22h1v1h-1ZM14 22h1v1h-1ZM18 22h1v1h-1ZM11 23h2v1h-2Z" fill="#000000" />
</svg>
