<?xml version="1.0" encoding="UTF-8" ?>
<svg version="1.1" width="25" height="24" xmlns="http://www.w3.org/2000/svg" shape-rendering="crispEdges">
<rect x="5" y="0" width="1" height="1" fill="#000000" />
<rect x="16" y="0" width="1" height="1" fill="#000000" />
<rect x="4" y="1" width="1" height="1" fill="#000000" />
<rect x="6" y="1" width="1" height="1" fill="#000000" />
<rect x="10" y="1" width="1" height="1" fill="#000000" />
<rect x="13" y="1" width="1" height="1" fill="#000000" />
<rect x="15" y="1" width="1" height="1" fill="#000000" />
<rect x="17" y="1" width="1" height="1" fill="#000000" />
<rect x="5" y="2" width="1" height="1" fill="#000000" />
<rect x="7" y="2" width="1" height="1" fill="#000000" />
<rect x="9" y="2" width="1" height="2" fill="#000000" />
<rect x="11" y="2" width="2" height="1" fill="#000000" />
<rect x="14" y="2" width="1" height="1" fill="#000000" />
<rect x="16" y="2" width="1" height="2" fill="#000000" />
<rect x="18" y="2" width="1" height="1" fill="#000000" />
<rect x="4" y="3" width="1" height="2" fill="#000000" />
<rect x="8" y="3" width="1" height="3" fill="#000000" />
<rect x="10" y="3" width="1" height="2" fill="#000000" />
<rect x="13" y="3" width="1" height="4" fill="#000000" />
<rect x="15" y="3" width="1" height="1" fill="#000000" />
<rect x="19" y="3" width="1" height="1" fill="#000000" />
<rect x="11" y="4" width="1" height="1" fill="#000000" />
<rect x="17" y="4" width="1" height="2" fill="#000000" />
<rect x="20" y="4" width="1" height="1" fill="#000000" />
<rect x="5" y="5" width="1" height="13" fill="#000000" />
<rect x="12" y="5" width="1" height="1" fill="#000000" />
<rect x="14" y="5" width="1" height="3" fill="#000000" />
<rect x="21" y="5" width="1" height="11" fill="#000000" />
<rect x="9" y="6" width="1" height="2" fill="#000000" />
<rect x="18" y="6" width="1" height="2" fill="#000000" />
<rect x="4" y="8" width="1" height="8" fill="#000000" />
<rect x="6" y="8" width="1" height="11" fill="#000000" />
<rect x="8" y="9" width="3" height="1" fill="#000000" />
<rect x="16" y="9" width="3" height="1" fill="#000000" />
<rect x="20" y="9" width="1" height="9" fill="#000000" />
<rect x="3" y="10" width="1" height="4" fill="#000000" />
<rect x="7" y="10" width="1" height="2" fill="#000000" />
<rect x="9" y="10" width="3" height="1" fill="#000000" />
<rect x="15" y="10" width="3" height="1" fill="#000000" />
<rect x="19" y="10" width="1" height="2" fill="#000000" />
<rect x="22" y="10" width="1" height="4" fill="#000000" />
<rect x="12" y="12" width="1" height="2" fill="#000000" />
<rect x="14" y="12" width="1" height="2" fill="#000000" />
<rect x="9" y="13" width="1" height="6" fill="#000000" />
<rect x="17" y="13" width="1" height="5" fill="#000000" />
<rect x="7" y="14" width="2" height="1" fill="#000000" />
<rect x="18" y="14" width="2" height="1" fill="#000000" />
<rect x="7" y="15" width="1" height="5" fill="#000000" />
<rect x="11" y="15" width="1" height="5" fill="#000000" />
<rect x="13" y="15" width="1" height="5" fill="#000000" />
<rect x="15" y="15" width="1" height="5" fill="#000000" />
<rect x="19" y="15" width="1" height="4" fill="#000000" />
<rect x="8" y="19" width="1" height="2" fill="#000000" />
<rect x="18" y="19" width="1" height="1" fill="#000000" />
<rect x="17" y="20" width="1" height="1" fill="#000000" />
<rect x="9" y="21" width="2" height="1" fill="#000000" />
<rect x="15" y="21" width="2" height="1" fill="#000000" />
<rect x="11" y="22" width="4" height="1" fill="#000000" />
</svg>
