<?xml version="1.0" encoding="UTF-8" ?>
<svg version="1.1" width="24" height="24" xmlns="http://www.w3.org/2000/svg" shape-rendering="crispEdges">
<path d="M4 0h1v1h-1ZM15 0h1v1h-1ZM3 1h1v1h-1ZM5 1h1v1h-1ZM9 1h1v1h-1ZM12 1h1v1h-1ZM14 1h1v1h-1ZM16 1h1v1h-1ZM4 2h1v1h-1ZM6 2h1v1h-1ZM8 2h1v2h-1ZM10 2h2v1h-2ZM13 2h1v1h-1ZM15 2h1v2h-1ZM17 2h1v1h-1ZM3 3h1v2h-1ZM7 3h1v3h-1ZM9 3h1v2h-1ZM12 3h1v4h-1ZM14 3h1v1h-1ZM18 3h1v1h-1ZM10 4h1v1h-1ZM16 4h1v2h-1ZM19 4h1v14h-1ZM4 5h1v13h-1ZM11 5h1v1h-1ZM13 5h1v3h-1ZM8 6h1v2h-1ZM17 6h1v2h-1ZM3 8h1v3h-1ZM5 8h1v3h-1ZM20 8h1v3h-1ZM7 9h3v1h-3ZM15 9h3v1h-3ZM2 10h1v4h-1ZM6 10h1v2h-1ZM8 10h3v1h-3ZM14 10h3v1h-3ZM18 10h1v2h-1ZM21 10h1v4h-1ZM3 12h1v4h-1ZM11 12h1v2h-1ZM13 12h1v2h-1ZM20 12h1v4h-1ZM5 13h1v6h-1ZM8 13h1v5h-1ZM16 13h1v5h-1ZM6 14h2v1h-2ZM17 14h2v1h-2ZM10 15h1v5h-1ZM12 15h1v5h-1ZM14 15h1v5h-1ZM18 15h1v4h-1ZM6 17h1v3h-1ZM7 19h1v2h-1ZM17 19h1v1h-1ZM16 20h1v1h-1ZM8 21h2v1h-2ZM14 21h2v1h-2ZM10 22h4v1h-4Z" fill="#000000" />
</svg>
