<?xml version="1.0" encoding="UTF-8" ?>
<svg version="1.1" width="24" height="24" xmlns="http://www.w3.org/2000/svg" shape-rendering="crispEdges">
<path d="M6 0h4v1h-4ZM14 0h4v1h-4ZM5 1h1v1h-1ZM10 1h1v3h-1ZM13 1h1v3h-1ZM18 1h1v1h-1ZM4 2h1v1h-1ZM8 2h2v1h-2ZM11 2h2v2h-2ZM14 2h2v1h-2ZM19 2h1v1h-1ZM3 3h1v2h-1ZM5 3h1v1h-1ZM18 3h1v1h-1ZM20 3h1v2h-1ZM4 4h1v2h-1ZM6 4h1v3h-1ZM17 4h1v3h-1ZM19 4h1v2h-1ZM2 5h1v8h-1ZM5 5h1v2h-1ZM18 5h1v2h-1ZM21 5h1v8h-1ZM5 9h1v3h-1ZM8 9h2v2h-2ZM14 9h2v2h-2ZM18 9h1v3h-1ZM4 10h1v4h-1ZM6 10h1v2h-1ZM10 10h1v1h-1ZM13 10h1v1h-1ZM17 10h1v2h-1ZM19 10h1v4h-1ZM3 11h1v1h-1ZM7 11h1v1h-1ZM11 11h2v2h-2ZM16 11h1v1h-1ZM20 11h1v1h-1ZM1 12h1v1h-1ZM8 12h2v1h-2ZM14 12h2v1h-2ZM22 12h1v1h-1ZM0 13h1v4h-1ZM5 13h1v2h-1ZM18 13h1v2h-1ZM23 13h1v4h-1ZM8 14h1v4h-1ZM15 14h1v4h-1ZM3 15h1v3h-1ZM6 15h1v1h-1ZM10 15h1v5h-1ZM13 15h1v5h-1ZM17 15h1v1h-1ZM20 15h1v3h-1ZM4 16h1v3h-1ZM7 16h1v1h-1ZM16 16h1v1h-1ZM19 16h1v3h-1ZM1 17h1v1h-1ZM5 17h1v2h-1ZM9 17h1v2h-1ZM12 17h1v5h-1ZM14 17h1v2h-1ZM18 17h1v2h-1ZM22 17h1v1h-1ZM2 18h1v1h-1ZM6 18h1v2h-1ZM17 18h1v2h-1ZM21 18h1v1h-1ZM3 19h1v1h-1ZM7 19h1v1h-1ZM11 19h1v2h-1ZM16 19h1v1h-1ZM20 19h1v1h-1ZM8 20h1v2h-1ZM15 20h1v2h-1ZM3 21h5v1h-5ZM9 21h1v1h-1ZM13 21h2v1h-2ZM16 21h5v1h-5ZM2 22h1v1h-1ZM10 22h1v1h-1ZM21 22h1v1h-1ZM3 23h7v1h-7ZM11 23h10v1h-10Z" fill="#000000" />
</svg>
