<?xml version="1.0" encoding="UTF-8" ?>
<svg version="1.1" width="24" height="24" xmlns="http://www.w3.org/2000/svg" shape-rendering="crispEdges">
<path d="M10 2h4v1h-4ZM8 3h3v3h-3ZM13 3h3v3h-3ZM6 4h2v1h-2ZM16 4h2v1h-2ZM5 5h1v1h-1ZM7 5h1v1h-1ZM16 5h1v1h-1ZM18 5h1v1h-1ZM4 6h1v5h-1ZM8 6h1v1h-1ZM15 6h1v1h-1ZM19 6h1v5h-1ZM5 7h1v4h-1ZM11 7h2v3h-2ZM18 7h1v4h-1ZM3 8h1v3h-1ZM6 8h1v1h-1ZM9 8h2v3h-2ZM13 8h2v3h-2ZM17 8h1v1h-1ZM20 8h1v3h-1ZM8 9h1v6h-1ZM15 9h1v6h-1ZM2 10h1v4h-1ZM21 10h1v4h-1ZM7 11h1v2h-1ZM9 11h1v5h-1ZM14 11h1v5h-1ZM16 11h1v2h-1ZM3 13h3v3h-3ZM10 13h1v3h-1ZM13 13h1v3h-1ZM18 13h3v3h-3ZM11 14h2v3h-2ZM6 15h1v1h-1ZM17 15h1v1h-1ZM4 16h2v1h-2ZM18 16h2v1h-2ZM4 17h1v1h-1ZM8 17h1v4h-1ZM15 17h1v4h-1ZM19 17h1v1h-1ZM5 18h1v1h-1ZM7 18h1v2h-1ZM9 18h2v3h-2ZM13 18h2v3h-2ZM16 18h1v2h-1ZM18 18h1v1h-1ZM6 19h1v1h-1ZM17 19h1v1h-1ZM10 21h4v1h-4Z" fill="#000000" />
</svg>
