<?xml version="1.0" encoding="UTF-8" ?>
<svg version="1.1" width="24" height="24" xmlns="http://www.w3.org/2000/svg" shape-rendering="crispEdges">
<path d="M10 2h4v4h-4ZM4 3h1v1h-1ZM8 3h2v2h-2ZM14 3h2v2h-2ZM19 3h1v1h-1ZM3 4h1v1h-1ZM5 4h3v1h-3ZM16 4h3v1h-3ZM20 4h1v1h-1ZM2 5h1v3h-1ZM9 5h1v1h-1ZM14 5h1v1h-1ZM21 5h1v3h-1ZM5 6h2v1h-2ZM11 6h2v1h-2ZM17 6h2v1h-2ZM4 7h1v2h-1ZM12 7h1v1h-1ZM19 7h1v2h-1ZM3 8h1v5h-1ZM6 8h3v2h-3ZM13 8h1v1h-1ZM15 8h3v3h-3ZM20 8h1v5h-1ZM5 9h1v2h-1ZM9 9h1v1h-1ZM14 9h1v1h-1ZM18 9h1v2h-1ZM2 10h1v4h-1ZM4 10h1v2h-1ZM6 10h2v1h-2ZM10 10h1v1h-1ZM19 10h1v2h-1ZM21 10h1v4h-1ZM8 11h1v1h-1ZM11 11h1v4h-1ZM14 11h1v1h-1ZM9 12h1v1h-1ZM13 12h1v1h-1ZM10 13h1v1h-1ZM12 13h1v1h-1ZM1 14h1v3h-1ZM6 14h2v3h-2ZM15 14h3v1h-3ZM22 14h1v3h-1ZM5 15h1v1h-1ZM8 15h1v1h-1ZM12 15h1v1h-1ZM14 15h1v1h-1ZM16 15h3v1h-3ZM9 16h1v1h-1ZM13 16h1v2h-1ZM17 16h1v1h-1ZM2 17h1v1h-1ZM10 17h1v4h-1ZM21 17h1v1h-1ZM3 18h1v1h-1ZM14 18h1v1h-1ZM20 18h1v1h-1ZM4 19h2v1h-2ZM9 19h1v3h-1ZM11 19h1v2h-1ZM15 19h1v3h-1ZM18 19h2v1h-2ZM6 20h3v1h-3ZM12 20h1v1h-1ZM16 20h2v1h-2ZM10 22h2v1h-2ZM14 22h1v1h-1ZM12 23h2v1h-2Z" fill="#000000" />
</svg>
