<?xml version="1.0" encoding="UTF-8" ?>
<svg version="1.1" width="24" height="24" xmlns="http://www.w3.org/2000/svg" shape-rendering="crispEdges">
<path d="M11 0h2v1h-2ZM5 1h2v1h-2ZM10 1h1v1h-1ZM13 1h1v1h-1ZM17 1h2v1h-2ZM4 2h1v2h-1ZM7 2h3v1h-3ZM14 2h3v1h-3ZM19 2h1v2h-1ZM9 3h2v2h-2ZM13 3h2v2h-2ZM5 4h1v2h-1ZM8 4h1v2h-1ZM15 4h1v2h-1ZM18 4h1v2h-1ZM9 5h1v4h-1ZM14 5h1v4h-1ZM4 6h1v12h-1ZM10 6h1v2h-1ZM13 6h1v2h-1ZM19 6h1v12h-1ZM5 7h2v4h-2ZM11 7h2v1h-2ZM17 7h2v4h-2ZM3 8h1v8h-1ZM7 8h2v1h-2ZM15 8h2v1h-2ZM20 8h1v8h-1ZM7 9h1v1h-1ZM11 9h2v6h-2ZM16 9h1v1h-1ZM2 10h1v4h-1ZM21 10h1v4h-1ZM5 11h1v8h-1ZM18 11h1v8h-1ZM6 13h1v8h-1ZM17 13h1v8h-1ZM7 14h1v4h-1ZM16 14h1v4h-1ZM8 15h2v2h-2ZM14 15h2v2h-2ZM10 16h4v1h-4ZM10 17h1v6h-1ZM13 17h1v5h-1ZM9 18h1v3h-1ZM14 18h1v3h-1ZM5 21h1v2h-1ZM8 21h1v1h-1ZM15 21h1v1h-1ZM18 21h1v2h-1ZM7 22h1v1h-1ZM12 22h1v1h-1ZM16 22h1v1h-1ZM6 23h1v1h-1ZM11 23h1v1h-1ZM17 23h1v1h-1Z" fill="#000000" />
</svg>
