<?xml version="1.0" encoding="UTF-8" ?>
<svg version="1.1" width="24" height="24" xmlns="http://www.w3.org/2000/svg" shape-rendering="crispEdges">
<path d="M7 2h8v1h-8ZM6 3h1v4h-1ZM15 3h1v1h-1ZM4 4h1v1h-1ZM17 4h1v1h-1ZM3 5h1v1h-1ZM5 5h1v1h-1ZM7 5h1v2h-1ZM13 5h2v1h-2ZM18 5h1v1h-1ZM2 6h1v2h-1ZM19 6h1v3h-1ZM15 7h1v2h-1ZM18 7h1v5h-1ZM1 8h1v3h-1ZM10 8h3v9h-3ZM16 8h2v5h-2ZM20 8h1v8h-1ZM8 9h2v7h-2ZM13 9h1v7h-1ZM14 10h1v6h-1ZM21 10h1v4h-1ZM2 11h2v2h-2ZM7 11h1v3h-1ZM15 11h1v3h-1ZM4 12h1v2h-1ZM1 13h1v3h-1ZM3 13h1v1h-1ZM16 13h1v1h-1ZM2 16h1v2h-1ZM19 16h1v2h-1ZM3 18h1v1h-1ZM5 18h2v1h-2ZM18 18h1v1h-1ZM4 19h1v1h-1ZM6 19h1v2h-1ZM17 19h1v1h-1ZM15 20h2v1h-2ZM7 21h8v1h-8Z" fill="#000000" />
</svg>
