<?xml version="1.0" encoding="UTF-8" ?>
<svg version="1.1" width="24" height="24" xmlns="http://www.w3.org/2000/svg" shape-rendering="crispEdges">
<path d="M6 1h1v1h-1ZM10 1h4v1h-4ZM17 1h1v1h-1ZM5 2h1v10h-1ZM7 2h3v1h-3ZM14 2h3v1h-3ZM18 2h1v10h-1ZM9 3h2v1h-2ZM13 3h2v1h-2ZM11 4h2v1h-2ZM10 5h1v1h-1ZM13 5h1v1h-1ZM4 6h1v5h-1ZM9 6h1v2h-1ZM12 6h1v1h-1ZM14 6h1v2h-1ZM19 6h1v5h-1ZM11 7h1v1h-1ZM3 8h1v8h-1ZM10 8h1v1h-1ZM13 8h1v1h-1ZM20 8h1v8h-1ZM11 9h2v1h-2ZM2 10h1v4h-1ZM9 10h2v1h-2ZM13 10h2v1h-2ZM21 10h1v4h-1ZM7 11h2v1h-2ZM10 11h1v6h-1ZM13 11h1v9h-1ZM15 11h2v1h-2ZM4 12h1v6h-1ZM6 12h2v1h-2ZM9 12h1v4h-1ZM14 12h1v4h-1ZM16 12h2v1h-2ZM19 12h1v2h-1ZM5 13h1v2h-1ZM7 13h2v1h-2ZM15 13h2v1h-2ZM18 13h1v2h-1ZM6 14h1v2h-1ZM8 14h1v1h-1ZM15 14h1v1h-1ZM17 14h1v2h-1ZM7 15h1v2h-1ZM16 15h1v2h-1ZM19 15h1v3h-1ZM5 16h1v3h-1ZM8 16h1v2h-1ZM15 16h1v2h-1ZM18 16h1v3h-1ZM6 17h1v3h-1ZM9 17h1v2h-1ZM11 17h1v1h-1ZM14 17h1v2h-1ZM17 17h1v3h-1ZM7 18h1v2h-1ZM10 18h1v4h-1ZM12 18h1v1h-1ZM16 18h1v2h-1ZM8 19h1v2h-1ZM11 19h1v1h-1ZM15 19h1v2h-1ZM9 20h1v3h-1ZM12 20h1v1h-1ZM14 20h1v3h-1ZM13 21h1v1h-1ZM10 23h4v1h-4Z" fill="#000000" />
</svg>
