<?xml version="1.0" encoding="UTF-8" ?>
<svg version="1.1" width="24" height="24" xmlns="http://www.w3.org/2000/svg" shape-rendering="crispEdges">
<path d="M12 0h1v1h-1ZM11 1h1v1h-1ZM13 1h1v2h-1ZM10 2h1v1h-1ZM8 3h2v5h-2ZM14 3h2v5h-2ZM6 4h2v2h-2ZM10 4h1v3h-1ZM13 4h1v3h-1ZM16 4h2v2h-2ZM5 5h1v6h-1ZM18 5h1v6h-1ZM4 6h1v5h-1ZM7 6h1v1h-1ZM16 6h1v1h-1ZM19 6h1v5h-1ZM6 7h1v4h-1ZM17 7h1v4h-1ZM3 8h1v2h-1ZM7 8h1v2h-1ZM10 8h4v2h-4ZM16 8h1v2h-1ZM20 8h1v2h-1ZM1 10h2v1h-2ZM8 10h2v4h-2ZM11 10h2v6h-2ZM14 10h2v4h-2ZM21 10h1v1h-1ZM0 11h1v1h-1ZM10 11h1v2h-1ZM13 11h1v2h-1ZM22 11h1v1h-1ZM1 12h1v1h-1ZM23 12h1v1h-1ZM2 13h1v1h-1ZM4 13h3v4h-3ZM17 13h3v4h-3ZM21 13h2v1h-2ZM3 14h1v2h-1ZM7 14h1v2h-1ZM10 14h1v2h-1ZM13 14h1v2h-1ZM16 14h1v2h-1ZM20 14h1v2h-1ZM8 16h2v5h-2ZM14 16h2v5h-2ZM4 17h2v1h-2ZM7 17h1v3h-1ZM10 17h1v3h-1ZM13 17h1v3h-1ZM16 17h1v3h-1ZM18 17h2v1h-2ZM5 18h2v1h-2ZM17 18h2v1h-2ZM6 19h1v1h-1ZM17 19h1v1h-1ZM10 21h1v2h-1ZM13 21h1v1h-1ZM12 22h1v1h-1ZM11 23h1v1h-1Z" fill="#000000" />
</svg>
