<?xml version="1.0" encoding="UTF-8" ?>
<svg version="1.1" width="24" height="24" xmlns="http://www.w3.org/2000/svg" shape-rendering="crispEdges">
<path d="M10 2h4v2h-4ZM8 3h2v1h-2ZM14 3h2v1h-2ZM6 4h3v1h-3ZM15 4h3v1h-3ZM5 5h3v1h-3ZM16 5h3v1h-3ZM4 6h3v1h-3ZM17 6h3v1h-3ZM4 7h2v4h-2ZM18 7h2v4h-2ZM3 8h1v3h-1ZM20 8h1v3h-1ZM6 9h1v2h-1ZM8 9h3v1h-3ZM13 9h3v1h-3ZM17 9h1v2h-1ZM2 10h1v4h-1ZM8 10h2v1h-2ZM14 10h2v1h-2ZM21 10h1v4h-1ZM5 11h1v6h-1ZM11 11h2v2h-2ZM18 11h1v6h-1ZM3 13h2v3h-2ZM6 13h1v3h-1ZM17 13h1v3h-1ZM19 13h2v3h-2ZM7 14h2v1h-2ZM10 14h1v1h-1ZM12 14h1v1h-1ZM14 14h1v1h-1ZM16 14h1v1h-1ZM8 15h2v1h-2ZM11 15h1v2h-1ZM13 15h1v3h-1ZM15 15h1v1h-1ZM4 16h1v2h-1ZM9 16h2v1h-2ZM12 16h1v1h-1ZM14 16h1v1h-1ZM19 16h1v2h-1ZM7 17h1v1h-1ZM10 17h1v1h-1ZM16 17h1v1h-1ZM3 18h1v1h-1ZM6 18h1v1h-1ZM9 18h1v1h-1ZM14 18h1v1h-1ZM17 18h1v1h-1ZM20 18h1v1h-1ZM2 19h1v1h-1ZM5 19h1v1h-1ZM8 19h1v1h-1ZM11 19h2v1h-2ZM15 19h1v1h-1ZM18 19h1v1h-1ZM21 19h1v1h-1ZM3 20h2v1h-2ZM7 20h1v1h-1ZM10 20h1v1h-1ZM13 20h1v1h-1ZM16 20h1v1h-1ZM19 20h2v1h-2ZM3 21h1v1h-1ZM6 21h1v1h-1ZM9 21h1v2h-1ZM14 21h1v2h-1ZM17 21h1v1h-1ZM20 21h1v1h-1ZM4 22h2v1h-2ZM8 22h1v1h-1ZM11 22h2v1h-2ZM15 22h1v1h-1ZM18 22h2v1h-2ZM6 23h2v1h-2ZM10 23h1v1h-1ZM13 23h1v1h-1ZM16 23h2v1h-2Z" fill="#000000" />
</svg>
