<?xml version="1.0" encoding="UTF-8" ?>
<svg version="1.1" width="24" height="24" xmlns="http://www.w3.org/2000/svg" shape-rendering="crispEdges">
<rect x="5" y="0" width="2" height="1" fill="#000000" />
<rect x="4" y="1" width="1" height="1" fill="#000000" />
<rect x="7" y="1" width="2" height="1" fill="#000000" />
<rect x="2" y="2" width="1" height="1" fill="#000000" />
<rect x="5" y="2" width="1" height="1" fill="#000000" />
<rect x="9" y="2" width="6" height="1" fill="#000000" />
<rect x="1" y="3" width="1" height="2" fill="#000000" />
<rect x="3" y="3" width="1" height="1" fill="#000000" />
<rect x="6" y="3" width="1" height="4" fill="#000000" />
<rect x="15" y="3" width="1" height="1" fill="#000000" />
<rect x="4" y="4" width="1" height="1" fill="#000000" />
<rect x="13" y="4" width="2" height="2" fill="#000000" />
<rect x="17" y="4" width="1" height="1" fill="#000000" />
<rect x="2" y="5" width="1" height="3" fill="#000000" />
<rect x="5" y="5" width="1" height="1" fill="#000000" />
<rect x="7" y="5" width="1" height="2" fill="#000000" />
<rect x="15" y="5" width="1" height="1" fill="#000000" />
<rect x="18" y="5" width="1" height="1" fill="#000000" />
<rect x="19" y="6" width="1" height="3" fill="#000000" />
<rect x="15" y="7" width="1" height="2" fill="#000000" />
<rect x="18" y="7" width="1" height="5" fill="#000000" />
<rect x="1" y="8" width="1" height="4" fill="#000000" />
<rect x="10" y="8" width="3" height="9" fill="#000000" />
<rect x="16" y="8" width="2" height="5" fill="#000000" />
<rect x="20" y="8" width="1" height="8" fill="#000000" />
<rect x="8" y="9" width="2" height="7" fill="#000000" />
<rect x="13" y="9" width="1" height="7" fill="#000000" />
<rect x="14" y="10" width="1" height="6" fill="#000000" />
<rect x="21" y="10" width="1" height="4" fill="#000000" />
<rect x="2" y="11" width="2" height="2" fill="#000000" />
<rect x="7" y="11" width="1" height="3" fill="#000000" />
<rect x="15" y="11" width="1" height="3" fill="#000000" />
<rect x="0" y="12" width="1" height="2" fill="#000000" />
<rect x="4" y="12" width="1" height="2" fill="#000000" />
<rect x="3" y="13" width="1" height="1" fill="#000000" />
<rect x="16" y="13" width="1" height="1" fill="#000000" />
<rect x="1" y="14" width="1" height="2" fill="#000000" />
<rect x="2" y="16" width="1" height="2" fill="#000000" />
<rect x="19" y="16" width="1" height="2" fill="#000000" />
<rect x="3" y="18" width="1" height="1" fill="#000000" />
<rect x="5" y="18" width="2" height="1" fill="#000000" />
<rect x="18" y="18" width="1" height="1" fill="#000000" />
<rect x="4" y="19" width="1" height="1" fill="#000000" />
<rect x="6" y="19" width="1" height="2" fill="#000000" />
<rect x="17" y="19" width="1" height="1" fill="#000000" />
<rect x="15" y="20" width="2" height="1" fill="#000000" />
<rect x="5" y="21" width="1" height="2" fill="#000000" />
<rect x="8" y="21" width="7" height="1" fill="#000000" />
<rect x="7" y="22" width="1" height="1" fill="#000000" />
<rect x="6" y="23" width="1" height="1" fill="#000000" />
</svg>
