<?xml version="1.0" encoding="UTF-8" ?>
<svg version="1.1" width="24" height="24" xmlns="http://www.w3.org/2000/svg" shape-rendering="crispEdges">
<path d="M9 2h5v1h-5ZM15 2h1v1h-1ZM6 3h3v1h-3ZM10 3h2v1h-2ZM13 3h2v1h-2ZM16 3h1v1h-1ZM5 4h1v12h-1ZM7 4h2v1h-2ZM11 4h1v6h-1ZM14 4h1v5h-1ZM17 4h1v9h-1ZM8 5h1v7h-1ZM18 5h1v3h-1ZM4 6h1v3h-1ZM19 6h1v3h-1ZM3 8h1v2h-1ZM13 8h1v2h-1ZM15 8h1v3h-1ZM20 8h1v8h-1ZM10 9h1v3h-1ZM12 9h1v1h-1ZM18 9h1v2h-1ZM2 10h1v4h-1ZM4 10h1v2h-1ZM9 10h1v1h-1ZM21 10h1v4h-1ZM6 11h2v1h-2ZM16 11h1v1h-1ZM19 11h1v8h-1ZM3 12h1v4h-1ZM11 12h3v1h-3ZM18 12h1v4h-1ZM4 13h1v6h-1ZM6 13h2v1h-2ZM14 13h1v3h-1ZM7 14h2v1h-2ZM8 15h3v1h-3ZM6 16h1v1h-1ZM11 16h2v1h-2ZM17 16h1v1h-1ZM7 17h2v1h-2ZM15 17h2v1h-2ZM9 18h2v1h-2ZM13 18h2v1h-2ZM5 19h2v1h-2ZM11 19h2v1h-2ZM17 19h2v1h-2ZM7 20h2v1h-2ZM15 20h2v1h-2ZM9 21h2v1h-2ZM13 21h2v1h-2ZM11 22h2v1h-2Z" fill="#000000" />
</svg>
