<?xml version="1.0" encoding="UTF-8" ?>
<svg version="1.1" width="24" height="24" xmlns="http://www.w3.org/2000/svg" shape-rendering="crispEdges">
<path d="M10 2h4v2h-4ZM8 3h2v1h-2ZM14 3h2v1h-2ZM6 4h3v1h-3ZM10 4h1v1h-1ZM15 4h3v1h-3ZM5 5h3v1h-3ZM11 5h1v4h-1ZM16 5h3v1h-3ZM4 6h3v1h-3ZM17 6h3v1h-3ZM4 7h2v1h-2ZM18 7h2v1h-2ZM3 8h2v8h-2ZM19 8h2v8h-2ZM7 9h4v2h-4ZM13 9h4v2h-4ZM2 10h1v4h-1ZM5 10h1v2h-1ZM18 10h1v2h-1ZM21 10h1v4h-1ZM7 11h3v1h-3ZM14 11h3v1h-3ZM8 12h1v1h-1ZM11 12h2v2h-2ZM5 13h3v1h-3ZM5 14h1v6h-1ZM18 14h1v6h-1ZM6 15h2v1h-2ZM9 15h1v2h-1ZM11 15h1v2h-1ZM13 15h1v2h-1ZM15 15h1v2h-1ZM17 15h1v1h-1ZM4 16h1v2h-1ZM7 16h1v1h-1ZM16 16h1v2h-1ZM19 16h1v2h-1ZM8 17h1v2h-1ZM10 17h1v2h-1ZM12 17h1v2h-1ZM14 17h1v2h-1ZM6 20h1v1h-1ZM17 20h1v1h-1ZM7 21h1v1h-1ZM16 21h1v1h-1ZM8 22h1v1h-1ZM15 22h1v1h-1ZM9 23h6v1h-6Z" fill="#000000" />
</svg>
