<?xml version="1.0" encoding="UTF-8" ?>
<svg version="1.1" width="24" height="24" xmlns="http://www.w3.org/2000/svg" shape-rendering="crispEdges">
<rect x="10" y="2" width="4" height="2" fill="#000000" />
<rect x="8" y="3" width="2" height="1" fill="#000000" />
<rect x="14" y="3" width="2" height="1" fill="#000000" />
<rect x="6" y="4" width="3" height="1" fill="#000000" />
<rect x="10" y="4" width="1" height="1" fill="#000000" />
<rect x="15" y="4" width="3" height="1" fill="#000000" />
<rect x="5" y="5" width="3" height="1" fill="#000000" />
<rect x="11" y="5" width="1" height="4" fill="#000000" />
<rect x="16" y="5" width="3" height="1" fill="#000000" />
<rect x="4" y="6" width="3" height="1" fill="#000000" />
<rect x="17" y="6" width="3" height="1" fill="#000000" />
<rect x="4" y="7" width="2" height="1" fill="#000000" />
<rect x="18" y="7" width="2" height="1" fill="#000000" />
<rect x="3" y="8" width="2" height="8" fill="#000000" />
<rect x="19" y="8" width="2" height="8" fill="#000000" />
<rect x="7" y="9" width="4" height="2" fill="#000000" />
<rect x="13" y="9" width="4" height="2" fill="#000000" />
<rect x="2" y="10" width="1" height="4" fill="#000000" />
<rect x="5" y="10" width="1" height="2" fill="#000000" />
<rect x="18" y="10" width="1" height="2" fill="#000000" />
<rect x="21" y="10" width="1" height="4" fill="#000000" />
<rect x="7" y="11" width="3" height="1" fill="#000000" />
<rect x="14" y="11" width="3" height="1" fill="#000000" />
<rect x="8" y="12" width="1" height="1" fill="#000000" />
<rect x="11" y="12" width="2" height="2" fill="#000000" />
<rect x="5" y="13" width="3" height="1" fill="#000000" />
<rect x="5" y="14" width="1" height="6" fill="#000000" />
<rect x="18" y="14" width="1" height="6" fill="#000000" />
<rect x="6" y="15" width="2" height="1" fill="#000000" />
<rect x="9" y="15" width="1" height="2" fill="#000000" />
<rect x="11" y="15" width="1" height="2" fill="#000000" />
<rect x="13" y="15" width="1" height="2" fill="#000000" />
<rect x="15" y="15" width="1" height="2" fill="#000000" />
<rect x="17" y="15" width="1" height="1" fill="#000000" />
<rect x="4" y="16" width="1" height="2" fill="#000000" />
<rect x="7" y="16" width="1" height="1" fill="#000000" />
<rect x="16" y="16" width="1" height="2" fill="#000000" />
<rect x="19" y="16" width="1" height="2" fill="#000000" />
<rect x="8" y="17" width="1" height="2" fill="#000000" />
<rect x="10" y="17" width="1" height="2" fill="#000000" />
<rect x="12" y="17" width="1" height="2" fill="#000000" />
<rect x="14" y="17" width="1" height="2" fill="#000000" />
<rect x="6" y="20" width="1" height="1" fill="#000000" />
<rect x="17" y="20" width="1" height="1" fill="#000000" />
<rect x="7" y="21" width="1" height="1" fill="#000000" />
<rect x="16" y="21" width="1" height="1" fill="#000000" />
<rect x="8" y="22" width="1" height="1" fill="#000000" />
<rect x="15" y="22" width="1" height="1" fill="#000000" />
<rect x="9" y="23" width="6" height="1" fill="#000000" />
</svg>
