<?xml version="1.0" encoding="UTF-8" ?>
<svg version="1.1" width="24" height="24" xmlns="http://www.w3.org/2000/svg" shape-rendering="crispEdges">
<path d="M10 2h4v2h-4ZM8 3h2v1h-2ZM14 3h2v1h-2ZM6 4h2v1h-2ZM11 4h2v1h-2ZM16 4h2v1h-2ZM5 5h2v1h-2ZM17 5h2v1h-2ZM3 6h3v1h-3ZM7 6h2v2h-2ZM15 6h2v2h-2ZM18 6h3v1h-3ZM2 7h1v2h-1ZM4 7h3v2h-3ZM9 7h1v1h-1ZM14 7h1v1h-1ZM17 7h3v2h-3ZM21 7h1v2h-1ZM7 8h1v1h-1ZM11 8h2v3h-2ZM16 8h1v1h-1ZM3 9h1v7h-1ZM5 9h2v1h-2ZM17 9h2v1h-2ZM20 9h1v7h-1ZM2 10h1v4h-1ZM4 10h1v4h-1ZM8 10h1v2h-1ZM15 10h1v2h-1ZM19 10h1v4h-1ZM21 10h1v4h-1ZM6 11h2v2h-2ZM9 11h1v1h-1ZM14 11h1v1h-1ZM16 11h2v2h-2ZM5 12h1v2h-1ZM18 12h1v2h-1ZM6 14h3v1h-3ZM15 14h3v1h-3ZM4 15h1v3h-1ZM7 15h1v2h-1ZM10 15h4v3h-4ZM16 15h1v2h-1ZM19 15h1v3h-1ZM5 16h1v3h-1ZM8 16h1v3h-1ZM15 16h1v3h-1ZM18 16h1v3h-1ZM6 17h1v3h-1ZM17 17h1v3h-1ZM9 18h1v3h-1ZM11 18h1v4h-1ZM14 18h1v3h-1ZM7 19h1v2h-1ZM12 19h1v3h-1ZM16 19h1v2h-1ZM10 20h1v3h-1ZM13 20h1v3h-1ZM8 21h1v2h-1ZM15 21h1v2h-1ZM9 23h1v1h-1ZM14 23h1v1h-1Z" fill="#000000" />
</svg>
