<?xml version="1.0" encoding="UTF-8" ?>
<svg version="1.1" width="24" height="24" xmlns="http://www.w3.org/2000/svg" shape-rendering="crispEdges">
<path d="M10 2h4v2h-4ZM8 3h2v1h-2ZM14 3h2v1h-2ZM6 4h3v1h-3ZM15 4h3v1h-3ZM5 5h3v1h-3ZM16 5h3v1h-3ZM4 6h3v1h-3ZM17 6h3v1h-3ZM4 7h2v2h-2ZM18 7h2v2h-2ZM3 8h1v8h-1ZM8 8h3v2h-3ZM13 8h3v2h-3ZM20 8h1v8h-1ZM5 9h2v2h-2ZM17 9h2v2h-2ZM2 10h1v4h-1ZM4 10h1v1h-1ZM8 10h1v1h-1ZM15 10h1v1h-1ZM19 10h1v1h-1ZM21 10h1v4h-1ZM5 11h1v8h-1ZM7 11h1v1h-1ZM11 11h2v2h-2ZM16 11h1v1h-1ZM18 11h1v8h-1ZM4 12h1v1h-1ZM8 12h3v1h-3ZM13 12h3v1h-3ZM19 12h1v1h-1ZM6 13h1v7h-1ZM17 13h1v7h-1ZM4 14h1v4h-1ZM19 14h1v4h-1ZM9 15h3v1h-3ZM14 15h1v1h-1ZM12 16h2v1h-2ZM7 17h1v3h-1ZM16 17h1v3h-1ZM8 18h1v3h-1ZM15 18h1v3h-1ZM9 19h1v2h-1ZM14 19h1v2h-1ZM10 20h4v2h-4Z" fill="#000000" />
</svg>
