<?xml version="1.0" encoding="UTF-8" ?>
<svg version="1.1" width="24" height="24" xmlns="http://www.w3.org/2000/svg" shape-rendering="crispEdges">
<path d="M6 2h2v1h-2ZM10 2h4v5h-4ZM16 2h2v1h-2ZM5 3h1v1h-1ZM8 3h2v1h-2ZM14 3h2v1h-2ZM18 3h1v1h-1ZM4 4h1v3h-1ZM9 4h1v1h-1ZM14 4h1v1h-1ZM19 4h1v3h-1ZM5 5h2v2h-2ZM17 5h2v2h-2ZM3 6h1v1h-1ZM7 6h1v4h-1ZM16 6h1v4h-1ZM20 6h1v1h-1ZM2 7h1v1h-1ZM6 7h1v1h-1ZM9 7h1v1h-1ZM14 7h1v1h-1ZM17 7h1v1h-1ZM21 7h1v1h-1ZM1 8h1v2h-1ZM8 8h1v1h-1ZM15 8h1v1h-1ZM22 8h1v2h-1ZM3 9h2v2h-2ZM19 9h2v2h-2ZM2 10h1v3h-1ZM5 10h2v2h-2ZM17 10h2v2h-2ZM21 10h1v3h-1ZM9 11h1v3h-1ZM14 11h1v3h-1ZM6 12h1v2h-1ZM10 12h1v2h-1ZM13 12h1v2h-1ZM17 12h1v2h-1ZM1 13h1v3h-1ZM4 13h1v5h-1ZM19 13h1v5h-1ZM22 13h1v3h-1ZM3 14h1v3h-1ZM5 14h1v1h-1ZM7 14h1v1h-1ZM11 14h2v1h-2ZM16 14h1v1h-1ZM18 14h1v1h-1ZM20 14h1v3h-1ZM6 15h1v1h-1ZM8 15h2v3h-2ZM14 15h2v3h-2ZM17 15h1v1h-1ZM2 16h1v1h-1ZM7 16h1v2h-1ZM11 16h2v6h-2ZM16 16h1v2h-1ZM21 16h1v1h-1ZM5 18h1v1h-1ZM8 18h1v1h-1ZM10 18h1v4h-1ZM13 18h1v4h-1ZM15 18h1v1h-1ZM18 18h1v1h-1ZM6 19h1v1h-1ZM9 19h1v2h-1ZM14 19h1v2h-1ZM17 19h1v1h-1ZM7 20h2v1h-2ZM15 20h2v1h-2Z" fill="#000000" />
</svg>
