<?xml version="1.0" encoding="UTF-8" ?>
<svg version="1.1" width="24" height="24" xmlns="http://www.w3.org/2000/svg" shape-rendering="crispEdges">
<path d="M1 0h2v1h-2ZM21 0h2v1h-2ZM0 1h1v2h-1ZM3 1h1v2h-1ZM20 1h1v2h-1ZM23 1h1v2h-1ZM10 2h4v2h-4ZM1 3h1v1h-1ZM4 3h1v1h-1ZM8 3h2v1h-2ZM14 3h2v1h-2ZM19 3h1v1h-1ZM22 3h1v1h-1ZM0 4h1v1h-1ZM5 4h4v1h-4ZM15 4h4v1h-4ZM23 4h1v1h-1ZM1 5h2v1h-2ZM6 5h2v1h-2ZM16 5h2v1h-2ZM21 5h2v1h-2ZM3 6h1v1h-1ZM6 6h1v2h-1ZM17 6h1v2h-1ZM20 6h1v1h-1ZM4 7h1v7h-1ZM19 7h1v7h-1ZM3 8h1v8h-1ZM5 8h1v7h-1ZM18 8h1v7h-1ZM20 8h1v8h-1ZM8 9h3v2h-3ZM13 9h3v1h-3ZM2 10h1v4h-1ZM6 10h1v2h-1ZM13 10h1v1h-1ZM15 10h1v2h-1ZM17 10h1v2h-1ZM21 10h1v4h-1ZM8 11h2v1h-2ZM14 11h1v1h-1ZM11 12h2v2h-2ZM6 14h1v2h-1ZM17 14h1v2h-1ZM7 15h1v1h-1ZM9 15h1v1h-1ZM11 15h1v1h-1ZM13 15h1v1h-1ZM15 15h1v1h-1ZM1 16h2v1h-2ZM5 16h1v3h-1ZM8 16h1v2h-1ZM10 16h1v2h-1ZM12 16h1v2h-1ZM14 16h1v2h-1ZM16 16h1v1h-1ZM18 16h1v3h-1ZM21 16h2v1h-2ZM0 17h1v1h-1ZM9 17h1v1h-1ZM11 17h1v1h-1ZM13 17h1v1h-1ZM15 17h1v1h-1ZM23 17h1v1h-1ZM1 18h1v1h-1ZM4 18h1v1h-1ZM6 18h1v5h-1ZM17 18h1v5h-1ZM19 18h1v1h-1ZM22 18h1v1h-1ZM0 19h1v2h-1ZM3 19h1v2h-1ZM8 19h3v1h-3ZM15 19h1v1h-1ZM20 19h1v2h-1ZM23 19h1v2h-1ZM11 20h4v1h-4ZM1 21h2v1h-2ZM21 21h2v1h-2ZM8 22h2v1h-2ZM12 22h1v1h-1ZM14 22h1v1h-1ZM7 23h1v1h-1ZM10 23h2v1h-2ZM13 23h1v1h-1ZM15 23h2v1h-2Z" fill="#000000" />
</svg>
